<?xml version="1.0" standalone="no"?>
<!DOCTYPE svg PUBLIC "-//W3C//DTD SVG 20010904//EN"
 "http://www.w3.org/TR/2001/REC-SVG-20010904/DTD/svg10.dtd">
<svg version="1.0" xmlns="http://www.w3.org/2000/svg"
 width="160.000000pt" height="160.000000pt" viewBox="0 0 160.000000 160.000000"
 preserveAspectRatio="xMidYMid meet">
<metadata>
Created by potrace 1.14, written by Peter Selinger 2001-2017
</metadata>
<g transform="translate(0.000000,160.000000) scale(0.100000,-0.100000)"
fill="#000000" stroke="none">
<path d="M889 1519 c-159 -147 -273 -269 -382 -409 -99 -127 -225 -386 -309
-635 -28 -82 -54 -155 -59 -161 -22 -27 44 -187 96 -233 l36 -31 552 0 c304 0
557 4 563 8 15 9 105 155 99 160 -2 2 -41 6 -87 8 -46 2 -117 6 -158 8 -41 3
-85 5 -97 5 -17 1 -23 11 -33 51 -6 27 -18 54 -26 60 -7 7 -39 14 -71 17 -32
2 -69 6 -83 8 -14 2 -31 4 -38 4 -8 1 -11 11 -9 28 l4 27 231 0 c140 1 235 5
240 11 6 6 -53 176 -162 465 -95 250 -176 464 -180 475 -52 136 -63 160 -77
163 -8 1 -31 -12 -50 -29z m27 -96 c-7 -73 -13 -154 -22 -298 -3 -49 -7 -106
-9 -125 -2 -19 -6 -82 -10 -140 -3 -58 -8 -123 -10 -145 -2 -22 -6 -85 -10
-140 -11 -168 -12 -175 -17 -181 -14 -14 -32 157 -32 306 0 145 3 209 18 310
2 14 7 50 11 80 4 30 9 57 10 60 2 3 13 57 24 120 12 63 24 126 27 140 3 14 8
37 11 53 10 51 15 27 9 -40z m41 -45 c-3 -7 -5 -2 -5 12 0 14 2 19 5 13 2 -7
2 -19 0 -25z m-2 -450 c-2 -238 -4 -439 -4 -445 -1 -8 -14 -13 -31 -13 -26 0
-33 7 -32 30 2 40 14 217 17 255 3 28 7 91 10 140 3 50 7 117 10 150 4 53 8
107 20 265 2 25 4 46 4 48 7 19 8 -65 6 -430z m-221 -518 c27 -6 56 -15 65
-21 12 -7 9 -8 -10 -3 -14 3 -81 6 -147 8 -113 2 -123 0 -145 -20 -13 -12 -30
-36 -37 -54 l-13 -32 -86 6 c-47 4 -95 9 -106 11 -11 2 -36 4 -55 4 -23 1 -31
4 -24 11 11 11 160 65 209 75 152 33 252 38 349 15z"/>
</g>
</svg>
